<?xml version="1.0" standalone="no"?>
<!DOCTYPE svg PUBLIC "-//W3C//DTD SVG 20010904//EN"
 "http://www.w3.org/TR/2001/REC-SVG-20010904/DTD/svg10.dtd">
<svg version="1.0" xmlns="http://www.w3.org/2000/svg"
 width="348.000000pt" height="348.000000pt" viewBox="0 0 348.000000 348.000000"
 preserveAspectRatio="xMidYMid meet">

<g transform="translate(0.000000,348.000000) scale(0.100000,-0.100000)"
fill="#000000" stroke="none">
<path d="M1540 3469 c-582 -67 -1100 -434 -1361 -964 -239 -487 -239 -1043 0
-1530 294 -596 900 -975 1561 -975 871 0 1612 651 1725 1517 126 963 -569
1844 -1540 1953 -105 12 -278 11 -385 -1z m503 -139 c335 -65 620 -221 858
-466 230 -238 365 -499 431 -826 32 -162 32 -434 0 -596 -65 -326 -202 -588
-431 -826 -238 -246 -522 -400 -863 -468 -162 -32 -434 -32 -596 0 -341 68
-625 222 -863 468 -230 238 -365 499 -431 826 -32 162 -32 434 0 596 68 342
222 624 468 863 238 229 507 370 821 428 149 28 167 29 343 26 105 -3 190 -10
263 -25z"/>
</g>
</svg>
